C:\Users\u0145647\OneDrive - KU Leuven\KU Leuven\BCN_Workshop\ParameterEstimation\Data_CP1\IPSA\JointAngles\JointAngles_segment_2.mot
version=1
nRows=117
nColumns=4
inDegrees=yes
endheader
                time	         pelvis_tilt	       hip_flexion_l	        knee_angle_l	
          5.56500000	         90.00000000	         90.00000000	        -59.38372449	
          5.57000000	         90.00000000	         90.00000000	        -59.37272456	
          5.57500000	         90.00000000	         90.00000000	        -59.36226642	
          5.58000000	         90.00000000	         90.00000000	        -59.35228973	
          5.58500000	         90.00000000	         90.00000000	        -59.34272549	
          5.59000000	         90.00000000	         90.00000000	        -59.33349354	
          5.59500000	         90.00000000	         90.00000000	        -59.32450163	
          5.60000000	         90.00000000	         90.00000000	        -59.31564639	
          5.60500000	         90.00000000	         90.00000000	        -59.30681776	
          5.61000000	         90.00000000	         90.00000000	        -59.29789974	
          5.61500000	         90.00000000	         90.00000000	        -59.28876775	
          5.62000000	         90.00000000	         90.00000000	        -59.27928876	
          5.62500000	         90.00000000	         90.00000000	        -59.26932704	
          5.63000000	         90.00000000	         90.00000000	        -59.25874755	
          5.63500000	         90.00000000	         90.00000000	        -59.24741861	
          5.64000000	         90.00000000	         90.00000000	        -59.23521486	
          5.64500000	         90.00000000	         90.00000000	        -59.22201772	
          5.65000000	         90.00000000	         90.00000000	        -59.20771546	
          5.65500000	         90.00000000	         90.00000000	        -59.19220558	
          5.66000000	         90.00000000	         90.00000000	        -59.17539634	
          5.66500000	         90.00000000	         90.00000000	        -59.15720607	
          5.67000000	         90.00000000	         90.00000000	        -59.13756476	
          5.67500000	         90.00000000	         90.00000000	        -59.11641608	
          5.68000000	         90.00000000	         90.00000000	        -59.09372103	
          5.68500000	         90.00000000	         90.00000000	        -59.06946167	
          5.69000000	         90.00000000	         90.00000000	        -59.04364168	
          5.69500000	         90.00000000	         90.00000000	        -59.01628614	
          5.70000000	         90.00000000	         90.00000000	        -58.98744168	
          5.70500000	         90.00000000	         90.00000000	        -58.95717137	
          5.71000000	         90.00000000	         90.00000000	        -58.92554908	
          5.71500000	         90.00000000	         90.00000000	        -58.89265411	
          5.72000000	         90.00000000	         90.00000000	        -58.85856588	
          5.72500000	         90.00000000	         90.00000000	        -58.82336038	
          5.73000000	         90.00000000	         90.00000000	        -58.78710937	
          5.73500000	         90.00000000	         90.00000000	        -58.74988358	
          5.74000000	         90.00000000	         90.00000000	        -58.71175207	
          5.74500000	         90.00000000	         90.00000000	        -58.67278300	
          5.75000000	         90.00000000	         90.00000000	        -58.63304823	
          5.75500000	         90.00000000	         90.00000000	        -58.59262653	
          5.76000000	         90.00000000	         90.00000000	        -58.55160795	
          5.76500000	         90.00000000	         90.00000000	        -58.51009692	
          5.77000000	         90.00000000	         90.00000000	        -58.46821566	
          5.77500000	         90.00000000	         90.00000000	        -58.42610559	
          5.78000000	         90.00000000	         90.00000000	        -58.38392799	
          5.78500000	         90.00000000	         90.00000000	        -58.34186129	
          5.79000000	         90.00000000	         90.00000000	        -58.30009571	
          5.79500000	         90.00000000	         90.00000000	        -58.25882896	
          5.80000000	         90.00000000	         90.00000000	        -58.21826239	
          5.80500000	         90.00000000	         90.00000000	        -58.17859113	
          5.81000000	         90.00000000	         90.00000000	        -58.13999151	
          5.81500000	         90.00000000	         90.00000000	        -58.10261127	
          5.82000000	         90.00000000	         90.00000000	        -58.06656545	
          5.82500000	         90.00000000	         90.00000000	        -58.03193601	
          5.83000000	         90.00000000	         90.00000000	        -57.99876996	
          5.83500000	         90.00000000	         90.00000000	        -57.96707960	
          5.84000000	         90.00000000	         90.00000000	        -57.93684560	
          5.84500000	         90.00000000	         90.00000000	        -57.90801721	
          5.85000000	         90.00000000	         90.00000000	        -57.88051528	
          5.85500000	         90.00000000	         90.00000000	        -57.85424046	
          5.86000000	         90.00000000	         90.00000000	        -57.82907863	
          5.86500000	         90.00000000	         90.00000000	        -57.80490717	
          5.87000000	         90.00000000	         90.00000000	        -57.78159654	
          5.87500000	         90.00000000	         90.00000000	        -57.75901277	
          5.88000000	         90.00000000	         90.00000000	        -57.73702199	
          5.88500000	         90.00000000	         90.00000000	        -57.71549705	
          5.89000000	         90.00000000	         90.00000000	        -57.69432077	
          5.89500000	         90.00000000	         90.00000000	        -57.67338949	
          5.90000000	         90.00000000	         90.00000000	        -57.65261943	
          5.90500000	         90.00000000	         90.00000000	        -57.63194786	
          5.91000000	         90.00000000	         90.00000000	        -57.61133551	
          5.91500000	         90.00000000	         90.00000000	        -57.59076571	
          5.92000000	         90.00000000	         90.00000000	        -57.57023907	
          5.92500000	         90.00000000	         90.00000000	        -57.54976667	
          5.93000000	         90.00000000	         90.00000000	        -57.52936360	
          5.93500000	         90.00000000	         90.00000000	        -57.50904014	
          5.94000000	         90.00000000	         90.00000000	        -57.48879690	
          5.94500000	         90.00000000	         90.00000000	        -57.46862443	
          5.95000000	         90.00000000	         90.00000000	        -57.44850437	
          5.95500000	         90.00000000	         90.00000000	        -57.42841237	
          5.96000000	         90.00000000	         90.00000000	        -57.40831947	
          5.96500000	         90.00000000	         90.00000000	        -57.38819259	
          5.97000000	         90.00000000	         90.00000000	        -57.36799490	
          5.97500000	         90.00000000	         90.00000000	        -57.34768895	
          5.98000000	         90.00000000	         90.00000000	        -57.32723686	
          5.98500000	         90.00000000	         90.00000000	        -57.30659852	
          5.99000000	         90.00000000	         90.00000000	        -57.28573108	
          5.99500000	         90.00000000	         90.00000000	        -57.26458780	
          6.00000000	         90.00000000	         90.00000000	        -57.24311461	
          6.00500000	         90.00000000	         90.00000000	        -57.22124826	
          6.01000000	         90.00000000	         90.00000000	        -57.19892124	
          6.01500000	         90.00000000	         90.00000000	        -57.17606069	
          6.02000000	         90.00000000	         90.00000000	        -57.15258617	
          6.02500000	         90.00000000	         90.00000000	        -57.12841011	
          6.03000000	         90.00000000	         90.00000000	        -57.10344220	
          6.03500000	         90.00000000	         90.00000000	        -57.07759874	
          6.04000000	         90.00000000	         90.00000000	        -57.05081288	
          6.04500000	         90.00000000	         90.00000000	        -57.02304100	
          6.05000000	         90.00000000	         90.00000000	        -56.99426577	
          6.05500000	         90.00000000	         90.00000000	        -56.96449796	
          6.06000000	         90.00000000	         90.00000000	        -56.93377865	
          6.06500000	         90.00000000	         90.00000000	        -56.90218041	
          6.07000000	         90.00000000	         90.00000000	        -56.86980625	
          6.07500000	         90.00000000	         90.00000000	        -56.83678562	
          6.08000000	         90.00000000	         90.00000000	        -56.80326607	
          6.08500000	         90.00000000	         90.00000000	        -56.76940355	
          6.09000000	         90.00000000	         90.00000000	        -56.73535710	
          6.09500000	         90.00000000	         90.00000000	        -56.70128441	
          6.10000000	         90.00000000	         90.00000000	        -56.66733345	
          6.10500000	         90.00000000	         90.00000000	        -56.63363527	
          6.11000000	         90.00000000	         90.00000000	        -56.60030337	
          6.11500000	         90.00000000	         90.00000000	        -56.56743724	
          6.12000000	         90.00000000	         90.00000000	        -56.53512857	
          6.12500000	         90.00000000	         90.00000000	        -56.50346206	
          6.13000000	         90.00000000	         90.00000000	        -56.47251155	
          6.13500000	         90.00000000	         90.00000000	        -56.44233550	
          6.14000000	         90.00000000	         90.00000000	        -56.41297215	
          6.14500000	         90.00000000	         90.00000000	        -56.38443943	
